# xmcd
#
# Track frame offsets:
#	151
#	9662
#	21143
#	32362
#
# Disc length: 638 seconds
#
# Revision: 0
# Processed by: cddbd v1.5.2PL0 Copyright (c) Steve Scherf et al.
# Submitted via: audiograbber 1.83.01
#
DISCID=20027c04
DTITLE=Elvis Presley - Cuttin' Loose
DYEAR=1955
DGENRE=R&B
TTITLE0=Hearts Of Stone (Jan 15, 1955)
TTITLE1=Money Honey (Jan 15, 1955)
TTITLE2=I Don't Care If The Sun Don't Shine (Jan 22, 1955)
TTITLE3=Hound Dog (Dec 15, 1956)
EXTD=Tracks 1,2&3 were recorded from a hardly schratched - one of a kind - acet
EXTD=ate.\n\nThey are her - for the first time - presented in the correct speed
EXTD=
EXTT0=
EXTT1=
EXTT2=
EXTT3=
PLAYORDER=
